<?xml version="1.0" encoding="utf-8"?>
<!-- Generator: Adobe Illustrator 24.0.0, SVG Export Plug-In . SVG Version: 6.00 Build 0)  -->
<svg version="1.1" xmlns="http://www.w3.org/2000/svg" xmlns:xlink="http://www.w3.org/1999/xlink" x="0px" y="0px"
	 viewBox="0 0 595.3 841.9" style="enable-background:new 0 0 595.3 841.9;" xml:space="preserve">
<style type="text/css">
	.st0{fill:none;stroke:#000000;stroke-miterlimit:10;}
	.st1{font-family:'AnteCf-Regular';}
	.st2{font-size:32.5521px;}
	.st3{letter-spacing:2;}
	.st4{font-size:24px;}
	.st5{font-size:10px;}
	.st6{fill:#FFFFFF;}
	.st7{font-family:'supermarket';}
	.st8{font-size:20.4167px;}
	.st9{letter-spacing:1;}
	.st10{fill:none;}
	.st11{fill:#9B8579;}
	.st12{font-size:12px;}
	.st13{font-size:14px;}
</style>
<g id="bg">
	
		<image style="overflow:visible;opacity:0.5;" width="2959" height="4438" xlink:href="../../../../Downloads/nordwood-themes-R53t-Tg6J4c-unsplash.jpg"  transform="matrix(0.2012 0 0 0.1897 0 0)">
	</image>
</g>
<g id="img">
	<line class="st0" x1="55.3" y1="53.6" x2="55.3" y2="238.3"/>
	<line class="st0" x1="55.3" y1="688.6" x2="55.3" y2="715"/>
	<line class="st0" x1="55.3" y1="714.5" x2="564.4" y2="714.5"/>
	<line class="st0" x1="564.4" y1="53.6" x2="564.4" y2="715"/>
	<line class="st0" x1="55.3" y1="53.6" x2="564.9" y2="53.6"/>
	<text transform="matrix(1 0 0 1 75.7582 279.7208)" class="st1 st2 st3">EXPERIENCE</text>
	<text transform="matrix(1 0 0 1 278.3311 143.7516)" class="st1 st2 st3">EDUCATION</text>
	<text transform="matrix(1 0 0 1 378.4955 587.3018)" class="st1 st4">Contact Details</text>
	<text transform="matrix(1 0 0 1 15.4973 312.0958)" class="st1 st5">NOW</text>
	<text transform="matrix(1 0 0 1 17.0415 356.8094)" class="st1 st5">2019</text>
	<text transform="matrix(1 0 0 1 17.0413 393.4109)" class="st1 st5">2018</text>
	<text transform="matrix(1 0 0 1 17.0413 466.4864)" class="st1 st5">2017</text>
	<text transform="matrix(1 0 0 1 17.0413 605.4963)" class="st1 st5">2016</text>
	<g>
		<rect x="247.5" y="63" width="253.6" height="42.2"/>
		<text transform="matrix(1 0 0 1 247.2603 79.4151)"><tspan x="0" y="0" class="st6 st7 st8 st9">PATIPARN KEAWPRASITCHORK</tspan><tspan x="181.9" y="24.5" class="st6 st7 st8 st9">“ NOTE ”</tspan></text>
	</g>
	<g>
		<path class="st10" d="M418.6,272c0.3-1.3,0.5-2.7,0.5-4.2s-0.2-2.9-0.5-4.2c-0.3-1.3-0.8-2.4-1.4-3.4c-0.6-1-1.3-1.7-2.1-2.3
			c-0.8-0.6-1.6-0.8-2.5-0.8c-0.9,0-1.8,0.3-2.6,0.8c-0.8,0.6-1.5,1.3-2.1,2.3c-0.6,1-1.1,2.1-1.4,3.4c-0.3,1.3-0.5,2.7-0.5,4.2
			s0.2,2.9,0.5,4.2c0.3,1.3,0.8,2.4,1.4,3.4s1.3,1.7,2.1,2.3s1.6,0.8,2.6,0.8c0.3,0,0.5,0,0.8-0.1V271h3.6v4.7
			c0.1-0.1,0.1-0.2,0.2-0.2C417.8,274.5,418.2,273.3,418.6,272z"/>
		<path class="st10" d="M444.6,276.2c-0.9,1.1-2,1.9-3.2,2.5c-0.2,0.1-0.4,0.2-0.6,0.3v3l5.2-5.2v-2.7
			C445.6,274.9,445.1,275.6,444.6,276.2z"/>
		<path class="st10" d="M433.5,278.8c-1.2-0.6-2.3-1.5-3.2-2.5c-0.5-0.6-0.9-1.2-1.3-1.9l-6,6l7.7,11.9l6.6-6.6v-6
			C435.9,279.6,434.6,279.3,433.5,278.8z"/>
		<path class="st10" d="M432.8,275.4c0.6,1,1.3,1.7,2.1,2.3c0.7,0.5,1.5,0.8,2.3,0.8V271h3.6v6c0.4-0.4,0.9-1,1.2-1.6
			c0.6-1,1.1-2.1,1.4-3.4c0.3-1.3,0.5-2.7,0.5-4.2s-0.2-2.9-0.5-4.2c-0.3-1.3-0.8-2.4-1.4-3.4c-0.6-1-1.3-1.7-2.1-2.3
			c-0.8-0.6-1.6-0.8-2.5-0.8c-0.9,0-1.8,0.3-2.6,0.8c-0.8,0.6-1.5,1.3-2.1,2.3c-0.6,1-1.1,2.1-1.4,3.4c-0.3,1.3-0.5,2.7-0.5,4.2
			c0,1.1,0.1,2.1,0.3,3.1h1.1l-0.9,0.9c0,0.1,0,0.1,0,0.2C431.7,273.3,432.2,274.5,432.8,275.4z"/>
		<path class="st11" d="M405.4,276.2c-0.9-1.1-1.7-2.3-2.2-3.8c-0.1-0.3-0.2-0.7-0.3-1c-1-0.3-2.2-0.5-3.7-0.5
			c-1.5,0-2.8,0.1-3.9,0.4s-1.9,0.7-2.6,1.1c-0.6,0.4-1,0.8-1.4,1.2v5.9h-1c0.1,0.2,0.2,0.5,0.4,0.7c0.5,0.7,1.1,1.3,1.9,1.8
			c0.8,0.5,1.6,0.9,2.6,1.2s2,0.6,3,0.9c0.8,0.2,1.6,0.5,2.4,0.7c0.8,0.2,1.5,0.5,2.2,0.9c0.7,0.3,1.2,0.7,1.6,1.2
			c0.4,0.5,0.7,1,0.9,1.6c0,0.2,0.1,0.4,0.1,0.6c0,0.2,0,0.4,0,0.6c0,2.5-2,3.7-6.1,3.7c-0.7,0-1.3-0.1-1.8-0.2
			c-0.5-0.2-1-0.4-1.4-0.7c-0.4-0.3-0.7-0.6-1-0.9c-0.3-0.3-0.5-0.7-0.7-1.1c-0.4-0.9-0.7-1.8-0.8-2.9h-3.6c0,0.1,0,0.4,0.1,0.7
			c0.1,0.4,0.2,0.8,0.4,1.4c0.2,0.5,0.5,1.1,0.9,1.6c0.4,0.6,0.9,1.1,1.6,1.6s1.6,0.9,2.6,1.2c1,0.3,2.3,0.5,3.7,0.5
			c1.5,0,2.8-0.2,3.9-0.5c1.1-0.3,1.9-0.7,2.6-1.2c0.7-0.5,1.2-1,1.6-1.5c0.4-0.6,0.6-1.1,0.8-1.6c0.2-0.5,0.3-0.9,0.3-1.3
			c0-0.4,0-0.6,0-0.7c0-1-0.2-1.9-0.7-2.6c-0.5-0.7-1.1-1.3-1.9-1.8c-0.8-0.5-1.6-0.9-2.6-1.2c-1-0.3-2-0.6-3-0.9
			c-0.8-0.2-1.6-0.5-2.4-0.7c-0.8-0.2-1.5-0.5-2.2-0.9c-0.7-0.3-1.2-0.7-1.6-1.2c-0.4-0.5-0.7-1-0.9-1.7c-0.1-0.3-0.1-0.6-0.1-0.9
			c0-0.6,0.1-1.2,0.4-1.6c0.3-0.5,0.7-0.8,1.2-1.1c0.5-0.3,1.2-0.5,1.9-0.6c0.7-0.1,1.6-0.2,2.5-0.2c0.7,0,1.3,0.1,1.8,0.2
			c0.5,0.2,1,0.4,1.4,0.6c0.4,0.3,0.7,0.6,1,0.9c0.3,0.3,0.5,0.7,0.7,1c0.5,0.8,0.7,1.7,0.8,2.8h2.4
			C406.6,277.5,406,276.9,405.4,276.2z"/>
		<polygon class="st11" points="428.5,294.6 432.1,294.6 430.6,292.2 428.4,294.5 		"/>
		<path class="st11" d="M428.9,274.3c-0.1-0.3-0.3-0.5-0.4-0.8L417,285v-6.5c-0.2,0.1-0.3,0.2-0.5,0.3c-1,0.5-2,0.8-3.1,0.9v15h3.6
			v-8.4l3.7-3.7l7.7,12l2.2-2.2l-7.7-11.9L428.9,274.3z"/>
		<path class="st11" d="M413.4,271v7.5c0.6-0.1,1.2-0.4,1.7-0.8c0.7-0.5,1.4-1.2,1.9-2.1V271H413.4z"/>
		<path class="st11" d="M431.2,271c0.1,0.3,0.1,0.6,0.2,0.9l0.9-0.9H431.2z"/>
		<path class="st11" d="M437.4,279.7c-0.1,0-0.2,0-0.3,0v6l3.6-3.6v-3C439.7,279.5,438.6,279.7,437.4,279.7z"/>
		<path class="st11" d="M437.2,271v7.6c0.1,0,0.2,0,0.3,0c0.9,0,1.7-0.3,2.5-0.8c0.3-0.2,0.6-0.5,0.8-0.7v-6H437.2z"/>
		<polygon class="st11" points="437.2,294.6 440.8,294.6 440.8,282.1 437.2,285.7 		"/>
		<path class="st11" d="M447.2,271c-0.1,0.5-0.3,1-0.4,1.5c-0.2,0.6-0.5,1.1-0.8,1.7v2.7l3.6-3.6V271H447.2z"/>
		<polygon class="st11" points="446,294.6 462.1,294.6 462.1,293.5 449.6,293.5 449.6,273.2 446,276.9 		"/>
		<polygon class="st11" points="470.6,271 467,271 467,278.6 468.5,278.6 468.5,279.7 467,279.7 467,294.6 483.1,294.6 483.1,293.5 
			470.6,293.5 		"/>
		<path class="st11" d="M486.5,274.6c-0.2,0.3-0.4,0.7-0.5,1c-0.2,0.5-0.3,1-0.3,1.4c0,0,0,0.1,0,0.1c0.5-0.6,0.8-1.3,0.8-2.2
			C486.5,274.8,486.5,274.7,486.5,274.6z"/>
		<path class="st11" d="M501.7,283.5c-0.8-0.5-1.6-0.9-2.6-1.2c-1-0.3-2-0.6-3-0.9c-0.8-0.2-1.6-0.5-2.4-0.7
			c-0.8-0.2-1.5-0.5-2.2-0.9c-0.7-0.3-1.2-0.7-1.6-1.2c-0.4-0.5-0.7-1-0.9-1.7c-0.1-0.3-0.1-0.6-0.1-0.9c0,0,0-0.1,0-0.1
			c-0.1,0.2-0.2,0.4-0.4,0.6c-0.4,0.6-0.9,1.1-1.6,1.5c-0.4,0.2-0.8,0.5-1.2,0.7c0.1,0.6,0.3,1.2,0.6,1.7c0.5,0.7,1.1,1.3,1.9,1.8
			c0.8,0.5,1.6,0.9,2.6,1.2c1,0.3,2,0.6,3,0.9c0.8,0.2,1.6,0.5,2.4,0.7c0.8,0.2,1.5,0.5,2.2,0.9c0.7,0.3,1.2,0.7,1.6,1.2
			s0.7,1,0.9,1.6c0,0.2,0.1,0.4,0.1,0.6s0,0.4,0,0.6c0,2.5-2,3.7-6.1,3.7c-0.7,0-1.3-0.1-1.8-0.2c-0.5-0.2-1-0.4-1.4-0.7
			c-0.4-0.3-0.7-0.6-1-0.9c-0.3-0.3-0.5-0.7-0.7-1.1c-0.4-0.9-0.7-1.8-0.8-2.9h-3.6c0,0.1,0,0.4,0.1,0.7c0.1,0.4,0.2,0.8,0.4,1.4
			c0.2,0.5,0.5,1.1,0.9,1.6c0.4,0.6,0.9,1.1,1.6,1.6c0.7,0.5,1.6,0.9,2.6,1.2c1,0.3,2.3,0.5,3.7,0.5c1.5,0,2.8-0.2,3.9-0.5
			c1.1-0.3,1.9-0.7,2.6-1.2c0.7-0.5,1.2-1,1.6-1.5c0.4-0.6,0.6-1.1,0.8-1.6c0.2-0.5,0.3-0.9,0.3-1.3c0-0.4,0-0.6,0-0.7
			c0-1-0.2-1.9-0.7-2.6C503.1,284.5,502.5,283.9,501.7,283.5z"/>
		<path class="st11" d="M489.7,273.6c0,0.1,0,0.3-0.1,0.5c0.3-0.3,0.6-0.6,1-0.8c0.5-0.3,1.2-0.5,1.9-0.6c0.7-0.1,1.6-0.2,2.5-0.2
			c0.7,0,1.3,0.1,1.8,0.2c0.5,0.2,1,0.4,1.4,0.6c0.4,0.3,0.7,0.6,1,0.9c0.3,0.3,0.5,0.7,0.7,1c0.5,0.8,0.7,1.7,0.8,2.8h3.6
			c0-0.1,0-0.4-0.1-0.7c-0.1-0.4-0.2-0.8-0.4-1.4c-0.2-0.5-0.5-1.1-0.9-1.6c-0.4-0.6-0.9-1.1-1.6-1.6s-1.5-0.9-2.6-1.2
			c-1-0.3-2.3-0.5-3.8-0.5c-1.5,0-2.8,0.1-3.9,0.4c-0.5,0.1-1,0.3-1.4,0.5c0.1,0.3,0.1,0.6,0.1,1C489.8,273,489.7,273.2,489.7,273.6
			z"/>
		<path d="M389.9,277c0-0.4,0.1-0.8,0.3-1.4s0.4-1,0.8-1.6c0.1-0.1,0.1-0.2,0.2-0.3v-16.6h9.2v-1.1h-22v1.1h9.2v22.5h2.6
			c-0.2-0.6-0.3-1.2-0.3-1.9C389.9,277.6,389.9,277.4,389.9,277z"/>
		<path d="M391.3,273.8c-0.1,0.1-0.2,0.2-0.2,0.3c-0.4,0.5-0.6,1.1-0.8,1.6s-0.3,1-0.3,1.4c0,0.4,0,0.7,0,0.8c0,0.7,0.1,1.3,0.3,1.9
			h1V273.8z"/>
		<path d="M412.6,278.6c-0.9,0-1.8-0.3-2.6-0.8s-1.5-1.3-2.1-2.3s-1.1-2.1-1.4-3.4c-0.3-1.3-0.5-2.7-0.5-4.2s0.2-2.9,0.5-4.2
			c0.3-1.3,0.8-2.4,1.4-3.4c0.6-1,1.3-1.7,2.1-2.3c0.8-0.6,1.6-0.8,2.6-0.8c0.9,0,1.7,0.3,2.5,0.8c0.8,0.6,1.5,1.3,2.1,2.3
			c0.6,1,1.1,2.1,1.4,3.4c0.3,1.3,0.5,2.7,0.5,4.2s-0.2,2.9-0.5,4.2c-0.3,1.3-0.8,2.4-1.4,3.4c-0.1,0.1-0.1,0.2-0.2,0.2v2.8
			c1-0.6,1.9-1.3,2.7-2.3c0.9-1.1,1.6-2.3,2.2-3.8c0.5-1.4,0.8-3,0.8-4.6c0-1.6-0.3-3.2-0.8-4.6c-0.5-1.4-1.3-2.7-2.2-3.8
			s-2-1.9-3.2-2.5c-1.2-0.6-2.5-0.9-4-0.9c-1.4,0-2.7,0.3-3.9,0.9c-1.2,0.6-2.3,1.5-3.2,2.5c-0.9,1.1-1.7,2.3-2.2,3.8
			c-0.5,1.4-0.8,3-0.8,4.6c0,1.2,0.2,2.4,0.5,3.6c0,0,0.1,0,0.1,0c1,0.3,1.9,0.7,2.6,1.2s1.2,1,1.6,1.6c0.4,0.6,0.7,1.1,0.9,1.6
			c0.2,0.5,0.3,1,0.4,1.4c0.1,0.4,0.1,0.6,0.1,0.7h-1.2c0.4,0.3,0.9,0.6,1.3,0.8c1.2,0.6,2.5,0.9,3.9,0.9c0.3,0,0.5,0,0.8,0v-1.2
			C413.1,278.5,412.9,278.6,412.6,278.6z"/>
		<path d="M408.4,277.2c-0.1-0.4-0.2-0.8-0.4-1.4c-0.2-0.5-0.5-1.1-0.9-1.6c-0.4-0.6-0.9-1.1-1.6-1.6s-1.5-0.9-2.6-1.2
			c0,0-0.1,0-0.1,0c0.1,0.4,0.2,0.7,0.3,1c0.5,1.4,1.3,2.7,2.2,3.8c0.6,0.7,1.2,1.2,1.9,1.7h1.2
			C408.5,277.8,408.5,277.6,408.4,277.2z"/>
		<path d="M417,278.5v-2.8c-0.6,0.9-1.2,1.5-1.9,2.1c-0.5,0.4-1.1,0.6-1.7,0.8v1.2c1.1-0.1,2.2-0.4,3.1-0.9
			C416.7,278.7,416.9,278.6,417,278.5z"/>
		<path d="M434.9,277.7c-0.8-0.6-1.5-1.3-2.1-2.3s-1.1-2.1-1.4-3.4c0-0.1,0-0.1,0-0.2l-2.4,2.5c0.4,0.7,0.8,1.3,1.3,1.9
			c0.9,1.1,2,1.9,3.2,2.5c1.2,0.6,2.4,0.9,3.7,0.9v-1.1C436.3,278.5,435.6,278.3,434.9,277.7z"/>
		<path d="M431.2,271c-0.2-1-0.3-2-0.3-3.1c0-1.5,0.2-2.9,0.5-4.2c0.3-1.3,0.8-2.4,1.4-3.4c0.6-1,1.3-1.7,2.1-2.3
			c0.8-0.6,1.6-0.8,2.6-0.8c0.9,0,1.7,0.3,2.5,0.8c0.8,0.6,1.5,1.3,2.1,2.3c0.6,1,1.1,2.1,1.4,3.4c0.3,1.3,0.5,2.7,0.5,4.2
			s-0.2,2.9-0.5,4.2c-0.3,1.3-0.8,2.4-1.4,3.4c-0.4,0.6-0.8,1.1-1.2,1.6v2c0.2-0.1,0.4-0.2,0.6-0.3c1.2-0.6,2.3-1.5,3.2-2.5
			c0.5-0.6,1-1.3,1.4-2.1V271h1.2c0.2-1,0.4-2,0.4-3.1c0-1.6-0.3-3.2-0.8-4.6c-0.5-1.4-1.3-2.7-2.2-3.8c-0.9-1.1-2-1.9-3.2-2.5
			c-1.2-0.6-2.5-0.9-4-0.9c-1.4,0-2.7,0.3-3.9,0.9c-1.2,0.6-2.3,1.5-3.2,2.5c-0.9,1.1-1.6,2.3-2.2,3.8c-0.5,1.4-0.8,3-0.8,4.6
			c0,1.6,0.3,3.2,0.8,4.6c0.1,0.3,0.3,0.7,0.4,1l2.5-2.5H431.2z"/>
		<path d="M431.3,271.9c-0.1-0.3-0.1-0.6-0.2-0.9H431l-2.5,2.5c0.1,0.3,0.3,0.6,0.4,0.8L431.3,271.9z"/>
		<path d="M439.9,277.7c-0.8,0.6-1.6,0.8-2.5,0.8c-0.1,0-0.2,0-0.3,0v1.1c0.1,0,0.2,0,0.3,0c1.2,0,2.3-0.2,3.4-0.7v-2
			C440.5,277.3,440.2,277.5,439.9,277.7z"/>
		<path d="M446,274.2c0.3-0.5,0.5-1.1,0.8-1.7c0.2-0.5,0.3-1,0.4-1.5H446V274.2z"/>
		<polygon points="456,256.1 452.4,256.1 452.4,270.4 456,266.8 		"/>
		<polygon points="456,278.6 456,266.8 452.4,270.4 452.4,279.7 467,279.7 467,278.6 		"/>
		<rect x="467" y="278.6" width="1.6" height="1.1"/>
		<path d="M489,275.9c0.2-0.3,0.3-0.6,0.4-1c0.1-0.3,0.2-0.6,0.2-0.8c-0.1,0.1-0.2,0.2-0.2,0.3C489.1,274.8,489,275.3,489,275.9z"/>
		<path d="M488.5,272.6c0.4-0.2,0.8-0.4,1.2-0.6c-0.1-0.6-0.3-1.2-0.6-1.6c-0.5-0.7-1.1-1.3-1.9-1.8c-0.8-0.5-1.6-0.9-2.6-1.2
			c-1-0.3-2-0.6-3-0.9c-0.8-0.2-1.6-0.5-2.4-0.7c-0.8-0.2-1.5-0.5-2.2-0.9c-0.7-0.3-1.2-0.7-1.6-1.2c-0.4-0.5-0.7-1-0.9-1.7
			c-0.1-0.3-0.1-0.6-0.1-0.9c0-0.6,0.1-1.2,0.4-1.6c0.3-0.5,0.7-0.8,1.2-1.1c0.5-0.3,1.2-0.5,1.9-0.6c0.7-0.1,1.6-0.2,2.5-0.2
			c0.7,0,1.3,0.1,1.8,0.2c0.5,0.2,1,0.4,1.4,0.6c0.4,0.3,0.7,0.6,1,0.9c0.3,0.3,0.5,0.7,0.7,1c0.5,0.8,0.7,1.7,0.8,2.8h3.6
			c0-0.1,0-0.4-0.1-0.7c-0.1-0.4-0.2-0.8-0.4-1.4c-0.2-0.5-0.5-1.1-0.9-1.6c-0.4-0.6-0.9-1.1-1.6-1.6s-1.5-0.9-2.6-1.2
			c-1-0.3-2.3-0.5-3.8-0.5c-1.5,0-2.8,0.1-3.9,0.4s-1.9,0.7-2.6,1.1c-0.7,0.5-1.2,1-1.6,1.5c-0.4,0.5-0.6,1.1-0.8,1.6
			s-0.3,1-0.3,1.4c0,0.4,0,0.7,0,0.8c0,1,0.2,1.9,0.7,2.6c0.5,0.7,1.1,1.3,1.9,1.8c0.8,0.5,1.6,0.9,2.6,1.2c1,0.3,2,0.6,3,0.9
			c0.8,0.2,1.6,0.5,2.4,0.7c0.8,0.2,1.5,0.5,2.2,0.9c0.7,0.3,1.2,0.7,1.6,1.2c0.4,0.5,0.7,1,0.9,1.6c0,0.2,0.1,0.4,0.1,0.6
			c0,0.1,0,0.2,0,0.3c0.1-0.2,0.2-0.4,0.3-0.6C487.2,273.5,487.8,273,488.5,272.6z"/>
		<path d="M485.7,277.1c-0.9,1-2.7,1.5-5.3,1.5c-0.7,0-1.3-0.1-1.8-0.2c-0.5-0.2-1-0.4-1.4-0.7c-0.4-0.3-0.7-0.6-1-0.9
			c-0.3-0.3-0.5-0.7-0.7-1.1c-0.4-0.9-0.7-1.8-0.8-2.9h-3.6c0,0.1,0,0.4,0.1,0.7c0.1,0.4,0.2,0.8,0.4,1.4c0.2,0.5,0.5,1.1,0.9,1.6
			c0.4,0.6,0.9,1.1,1.6,1.6c0.7,0.5,1.6,0.9,2.6,1.2c1,0.3,2.3,0.5,3.7,0.5c1.5,0,2.8-0.2,3.9-0.5c0.5-0.1,1-0.3,1.4-0.5
			c0-0.3-0.1-0.6-0.1-0.9C485.7,277.7,485.7,277.4,485.7,277.1z"/>
		<path d="M488.6,276.5c0.1-0.2,0.3-0.4,0.4-0.6c0-0.6,0.2-1.1,0.4-1.5c0.1-0.1,0.2-0.2,0.2-0.3c0-0.2,0.1-0.3,0.1-0.5
			c0-0.4,0-0.6,0-0.7c0-0.3,0-0.7-0.1-1c-0.5,0.2-0.9,0.4-1.2,0.6c-0.7,0.5-1.2,1-1.6,1.5c-0.1,0.2-0.2,0.4-0.3,0.6
			c0,0.1,0,0.2,0,0.3c0,0.9-0.3,1.6-0.8,2.2c0,0.3,0,0.6,0,0.7c0,0.3,0,0.6,0.1,0.9c0.5-0.2,0.9-0.4,1.2-0.7
			C487.7,277.6,488.2,277.1,488.6,276.5z"/>
		<line class="st0" x1="414.5" y1="308.4" x2="478.4" y2="244.4"/>
	</g>
	<text transform="matrix(1 0 0 1 393.4984 334.0718)"><tspan x="0" y="0" class="st7 st12">- HTML/CSS/JS/React JS</tspan><tspan x="0" y="14.5" class="st7 st12">- BOOTSTRAP/MATERIAL UI  </tspan><tspan x="0" y="29" class="st7 st12">- ADOBE PS, ADOBE AI</tspan><tspan x="0" y="43.5" class="st7 st12">- UX DESIGN , ADOBE XD</tspan><tspan x="0" y="58" class="st7 st12">- MICROSOFT PROGRAMS</tspan><tspan x="0" y="72.5" class="st7 st12">- CREATIVY / TEAMWORK</tspan><tspan x="0" y="87" class="st7 st12">- PLANNING / ANALYSIS</tspan><tspan x="0" y="116" class="st7 st12">  </tspan></text>
	<text transform="matrix(1 0 0 1 379.6393 479.4543)" class="st1 st4 st9">LANGUAGE</text>
	<text transform="matrix(1 0 0 1 393.2549 506.5963)"><tspan x="0" y="0" class="st7 st12">THAI : NATIVE </tspan><tspan x="0" y="20" class="st7 st12">ENGLISH : FLUENT</tspan></text>
	<text transform="matrix(1 0 0 1 393.6642 613.509)"><tspan x="0" y="0" class="st7 st13">tel : 085 - 037 - 0636</tspan><tspan x="0" y="22" class="st7 st13">notexpen@gmail.com</tspan><tspan x="0" y="44" class="st7 st13">github/Note-Patiparn</tspan></text>
	<g>
		<defs>
			<circle id="SVGID_1_" cx="116.8" cy="116.3" r="101.3"/>
		</defs>
		<clipPath id="SVGID_2_">
			<use xlink:href="#SVGID_1_"  style="overflow:visible;"/>
		</clipPath>
		<g style="clip-path:url(#SVGID_2_);">
			
				<image style="overflow:visible;" width="1108" height="1478" xlink:href="../../../S__109486112.jpg"  transform="matrix(0.2598 0 0 0.2598 -39.0069 -26.8919)">
			</image>
		</g>
		<use xlink:href="#SVGID_1_"  style="overflow:visible;fill:none;stroke:#000000;stroke-miterlimit:10;"/>
	</g>
</g>
<g id="logo">
</g>
<g id="Layer_5">
</g>
<g id="Layer_3">
	<g>
		<text transform="matrix(1 0 0 1 278.3312 170.0718)" class="st7 st12">2017 Majoring Television Broadcasting</text>
		<text transform="matrix(1 0 0 1 302.7588 185.4105)" class="st7 st12">Minoring Marketing</text>
		<g>
			<text transform="matrix(1 0 0 1 278.5086 200.8782)" class="st7 st12">@ Mass Communication</text>
			<text transform="matrix(1 0 0 1 392.7558 200.8784)" class="st7 st12">Chiang Mai University</text>
		</g>
		<g>
			<text transform="matrix(1 0 0 1 278.5087 217.5825)" class="st7 st12">2014 English - German Program</text>
			<text transform="matrix(1 0 0 1 278.5084 233.6599)" class="st7 st12">@ Dara Academy Chiang Mai</text>
		</g>
	</g>
	<text transform="matrix(1 0 0 1 76.7582 356.6653)"><tspan x="0" y="0" class="st7 st13">Internship as Strategic Planner</tspan><tspan x="0" y="16.8" class="st7 st13">at Leo Burnett </tspan></text>
	<text transform="matrix(1 0 0 1 76.662 312.0956)" class="st7 st13">Currently studying UX design by Google.</text>
	<text transform="matrix(1 0 0 1 76.662 393.4112)"><tspan x="0" y="0" class="st7 st13">Internship as Media Planner </tspan><tspan x="0" y="16.8" class="st7 st13">at Rabbit Digital Group “ Lab Rabbit ” </tspan></text>
	<text transform="matrix(1 0 0 1 76.7582 429.7454)"><tspan x="0" y="0" class="st7 st13">Content Participant in J - MAT #27 Mitr Phol </tspan><tspan x="0" y="16.8" class="st7 st13">Finalist 24 from 700 teams  </tspan></text>
	<text transform="matrix(1 0 0 1 76.7583 466.6353)"><tspan x="0" y="0" class="st7 st13">A Leader of Mass Communication </tspan><tspan x="0" y="16.8" class="st7 st13">Academic Camp 4th  </tspan></text>
	<text transform="matrix(1 0 0 1 76.7584 502.529)"><tspan x="0" y="0" class="st7 st13">A Finance of Student Union</tspan><tspan x="0" y="16.8" class="st7 st13">Mass Communication Chiang Mai </tspan></text>
	<text transform="matrix(1 0 0 1 75.7583 582.2075)" class="st7 st13">Contest Participant in “ IDEA MARKET THINK ” #2 </text>
	<text transform="matrix(1 0 0 1 76.6622 543.595)"><tspan x="0" y="0" class="st7 st13">Be part of “ NOK FESTIVAL “ ( Live concert ) </tspan><tspan x="0" y="16.8" class="st7 st13">in Chiang Mai University</tspan></text>
	<text transform="matrix(1 0 0 1 76.7585 605.496)"><tspan x="0" y="0" class="st7 st13">Public Relation and Communication Plan </tspan><tspan x="0" y="16.8" class="st7 st13">for “ Sweet tree fruit juice “ </tspan></text>
	<text transform="matrix(1 0 0 1 76.7583 638.2158)"><tspan x="0" y="0" class="st7 st13">Filming a Video to promote </tspan><tspan x="0" y="16.8" class="st7 st13">Chiang Mai University’s Dorm  </tspan></text>
	<text transform="matrix(1 0 0 1 76.7582 675.1554)"><tspan x="0" y="0" class="st7 st13">Contest Participant “ Fisho “ Ads </tspan><tspan x="0" y="16.8" class="st7 st13"> </tspan></text>
	<line class="st0" x1="48.6" y1="307.9" x2="61.9" y2="307.9"/>
	<line class="st0" x1="48.6" y1="353.5" x2="61.9" y2="353.5"/>
	<line class="st0" x1="48.6" y1="390.2" x2="61.9" y2="390.2"/>
	<line class="st0" x1="48.6" y1="426.3" x2="61.9" y2="426.3"/>
	<line class="st0" x1="48.6" y1="462.8" x2="61.9" y2="462.8"/>
	<line class="st0" x1="48.6" y1="499" x2="61.9" y2="499"/>
	<line class="st0" x1="48.6" y1="539.8" x2="61.9" y2="539.8"/>
	<line class="st0" x1="48.6" y1="578.5" x2="61.9" y2="578.5"/>
	<line class="st0" x1="48.6" y1="602" x2="61.9" y2="602"/>
	<line class="st0" x1="48.6" y1="634.2" x2="61.9" y2="634.2"/>
	<line class="st0" x1="48.6" y1="671.4" x2="61.9" y2="671.4"/>
	<g>
		<text transform="matrix(1 0 0 1 54.3013 770.1562)" class="st1 st12">NOTEXPEN</text>
		<text transform="matrix(1 0 0 1 133.2701 770.1562)"><tspan x="0" y="0" class="st7 st12">I believe that every expedition must have many obstacles, and I also believe that </tspan><tspan x="0" y="14" class="st7 st12">every obstacles that I experienced will lead me to success. Moreover , I am willingly </tspan><tspan x="0" y="28" class="st7 st12">to bring all of my knowledge , skills and passionate  to excellence to your company </tspan><tspan x="0" y="42" class="st7 st12">while gaining a precious experiences from the expert field</tspan></text>
	</g>
	<path d="M151.8,733.8c-0.2,0.4-0.3,0.6-0.4,0.8c-2.1,3.5-4.2,7-6.3,10.5c-0.1,0.2-0.4,0.3-0.7,0.5c-0.1-0.2-0.3-0.4-0.4-0.7
		c-0.5-1.8-0.9-3.6-1.3-5.3c-0.1-0.5-0.4-1-0.7-1.3c-1.2-1.2-2.5-2.4-3.7-3.6c-0.2-0.2-0.3-0.5-0.4-0.8c0.3-0.1,0.5-0.2,0.8-0.2
		c4,0,8.1,0,12.1,0C151.2,733.6,151.4,733.7,151.8,733.8z M150,735.4c0,0-0.1-0.1-0.1-0.1c-1.5,0.8-3.1,1.7-4.6,2.5
		c-0.6,0.3-1.4,0.6-1.6,1.1c-0.2,0.5,0.2,1.3,0.3,1.9c0.2,1.1,0.5,2.1,0.8,3.4C146.6,741.1,148.3,738.2,150,735.4z M139.5,734.4
		c1.1,1.1,2.1,2.1,3.1,3.2c0.3,0.3,0.6,0.3,1,0.1c1.8-1,3.6-2,5.3-3c0.1-0.1,0.3-0.2,0.5-0.4C146,734.4,142.8,734.4,139.5,734.4z"/>
	<path d="M112.1,745.5c-0.8-0.2-1.6-0.4-2.5-0.6c-0.3-0.1-0.8-0.1-1.1,0.1c-3.3,1.4-7-0.3-8.2-3.6c-1.2-3.4,0.7-7,4.1-7.9
		c3.4-0.9,6.9,1.2,7.6,4.7c0.2,1.2,0.1,2.4-0.4,3.6c-0.1,0.3-0.2,0.7-0.1,1c0.2,0.8,0.4,1.7,0.6,2.5
		C112.2,745.4,112.2,745.5,112.1,745.5z M111.3,744.6c-0.1-0.4-0.1-0.7-0.2-1c-0.3-0.8-0.2-1.5,0.1-2.3c0.8-2,0.3-3.9-1.1-5.4
		c-1.4-1.5-3.1-2-5.1-1.6c-3,0.7-4.8,3.6-4,6.6c0.8,2.9,3.9,4.7,6.8,3.6c1.1-0.4,2-0.4,3-0.1C110.9,744.5,111,744.5,111.3,744.6z"/>
	<path d="M69.1,735c2.1-2.5,5-1.6,6.2-0.1c1.1,1.4,1.2,3.4,0.3,4.9c-0.3,0.4-0.6,0.9-0.9,1.2c-1.6,1.4-3.1,2.8-4.7,4.2
		c-0.4,0.4-0.9,0.5-1.4,0.1c-1.8-1.6-3.7-3.1-5.3-4.9c-1.6-1.7-1.5-4.3,0.1-5.9c1.6-1.6,4-1.5,5.5,0.1C68.9,734.8,69,734.9,69.1,735
		z M69.1,736.7c-0.3-0.5-0.6-0.9-0.9-1.2c-1.2-1.5-3.4-1.5-4.6,0c-1,1.3-1.1,3.2,0.1,4.5c1.6,1.6,3.3,3.1,5,4.6
		c0.1,0.1,0.5,0.1,0.6,0c1.7-1.5,3.3-3,4.9-4.5c0.8-0.8,1.1-1.9,0.9-3.1c-0.3-1.3-1.2-2.3-2.5-2.6c-1.4-0.3-2.4,0.3-3.1,1.4
		C69.5,736.1,69.3,736.3,69.1,736.7z"/>
	<text transform="matrix(1 0 0 1 17.041 335.7056)" class="st1 st5">2020</text>
	<text transform="matrix(1 0 0 1 76.7578 335.5615)" class="st7 st13">Self Employed</text>
	<line class="st0" x1="48.6" y1="332.4" x2="61.9" y2="332.4"/>
	<g>
		<path d="M543.2,741c-1.5,1.5-3,3-4.5,4.4c-0.2,0.2-0.5,0.3-0.7,0.4c-0.1-0.3-0.2-0.5-0.2-0.8c0-3.6,0-7.2,0-10.8
			c0-0.6,0.1-0.8,0.7-0.8c3.1,0,6.3,0,9.4,0c0.6,0,0.8,0.2,0.7,0.7c0,3.6,0,7.3,0,10.9c0,0.2-0.2,0.5-0.3,0.7
			c-0.2-0.1-0.5-0.2-0.7-0.3C546.2,743.9,544.7,742.5,543.2,741z M547.8,744.4c0-3.5,0-6.8,0-10.2c-3.1,0-6.2,0-9.3,0
			c0,3.4,0,6.7,0,10.2c0.2-0.2,0.4-0.4,0.5-0.5c1.1-1.1,2.2-2.2,3.3-3.3c0.6-0.6,1-0.6,1.6,0c0.2,0.2,0.3,0.3,0.5,0.5
			C545.6,742.2,546.7,743.3,547.8,744.4z"/>
		<path d="M547.8,744.4c-1.2-1.2-2.3-2.2-3.4-3.3c-0.2-0.2-0.3-0.3-0.5-0.5c-0.6-0.6-1-0.6-1.6,0c-1.1,1.1-2.2,2.2-3.3,3.3
			c-0.2,0.2-0.3,0.3-0.5,0.5c0-3.4,0-6.8,0-10.2c3.1,0,6.2,0,9.3,0C547.8,737.6,547.8,740.9,547.8,744.4z"/>
	</g>
</g>
</svg>
