<?xml version="1.0" encoding="utf-8"?>
<!-- Generator: Adobe Illustrator 24.0.0, SVG Export Plug-In . SVG Version: 6.00 Build 0)  -->
<svg version="1.1" id="Capa_1" xmlns="http://www.w3.org/2000/svg" xmlns:xlink="http://www.w3.org/1999/xlink" x="0px" y="0px"
	 viewBox="0 0 512 512" style="enable-background:new 0 0 512 512;" xml:space="preserve">
<style type="text/css">
	.st0{fill:#FFFFFF;}
</style>
<g>
	<g>
		<path class="st0" d="M400.6,263.9c0-8-3.4-15.7-9.2-21l-93.8-85c-5.3-4.9-12.1-7.3-18.9-7.3c-7.7,0-15.4,3.1-21,9.2
			c-10.5,11.5-9.6,29.4,1.9,39.9l39.3,35.6l-171-0.7c-15.6-0.1-28.2,12.5-28.3,28.1c-0.1,15.6,12.5,28.2,28.1,28.3l171,0.7
			l-39.5,35.3c-11.6,10.4-12.6,28.2-2.2,39.8c10.4,11.7,28.2,12.6,39.9,2.3l94.4-84.3C397.2,279.6,400.6,272,400.6,263.9z"/>
	</g>
</g>
</svg>
