<?xml version="1.0" encoding="utf-8"?>
<!-- Generator: Adobe Illustrator 24.0.0, SVG Export Plug-In . SVG Version: 6.00 Build 0)  -->
<svg version="1.1" id="Capa_1" xmlns="http://www.w3.org/2000/svg" xmlns:xlink="http://www.w3.org/1999/xlink" x="0px" y="0px"
	 viewBox="0 0 512 512" style="enable-background:new 0 0 512 512;" xml:space="preserve">
<style type="text/css">
	.st0{fill:#FFFFFF;}
	.st1{fill:none;stroke:#FFFFFF;stroke-width:10;stroke-miterlimit:10;}
</style>
<g>
	<g>
		<path class="st0" d="M188.1,368.3l124.5-22.7c15.3-2.8,25.5-17.5,22.7-32.9c-2.8-15.3-17.5-25.5-32.8-22.7l-52.1,9.5l104.5-135.4
			c9.5-12.4,7.3-30.1-5.1-39.6s-30.1-7.3-39.6,5.1L205.7,265l-4-52.9c-1.2-15.6-14.7-27.2-30.3-26c-8.3,0.6-15.5,4.8-20.2,10.9
			c-4.1,5.3-6.4,12.1-5.8,19.4l9.5,126.2c0.6,8,4.6,15.3,10.9,20.2S180.3,369.7,188.1,368.3z"/>
	</g>
</g>
<circle class="st1" cx="255" cy="255" r="220.7"/>
</svg>
