<?xml version="1.0" encoding="utf-8"?>
<!-- Generator: Adobe Illustrator 24.0.0, SVG Export Plug-In . SVG Version: 6.00 Build 0)  -->
<svg version="1.1" id="Capa_1" xmlns="http://www.w3.org/2000/svg" xmlns:xlink="http://www.w3.org/1999/xlink" x="0px" y="0px"
	 viewBox="0 0 512 512" style="enable-background:new 0 0 512 512;" xml:space="preserve">
<style type="text/css">
	.st0{fill:#FFFFFF;}
</style>
<g>
	<g>
		<path class="st0" d="M371,334l-6.3-126.4c-0.8-15.5-14.1-27.6-29.6-26.7c-15.5,0.8-27.6,14.1-26.8,29.6l2.7,53L190.3,142.1
			c-11-11-28.9-11.2-39.9-0.1c-11,11.1-11.2,28.9-0.1,39.9L271,303.2l-52.9-2.9c-15.7-0.8-28.9,11-29.7,26.6
			c-0.5,8.3,2.8,16,8.2,21.4c4.8,4.7,11.2,7.9,18.5,8.3l126.4,7c8,0.4,15.8-2.6,21.4-8.2C368.5,349.7,371.4,341.9,371,334z"/>
	</g>
</g>
</svg>
