<?xml version="1.0" encoding="utf-8"?>
<!-- Generator: Adobe Illustrator 24.0.0, SVG Export Plug-In . SVG Version: 6.00 Build 0)  -->
<svg version="1.1" id="Capa_1" xmlns="http://www.w3.org/2000/svg" xmlns:xlink="http://www.w3.org/1999/xlink" x="0px" y="0px"
	 viewBox="0 0 512 512" style="enable-background:new 0 0 512 512;" xml:space="preserve">
<style type="text/css">
	.st0{fill:#FFFFFF;}
</style>
<g>
	<g>
		<path class="st0" d="M340.3,378.7c6.3-4.9,10.3-12.3,10.9-20.2l9.5-126.2c0.6-7.2-1.7-14-5.8-19.4c-4.7-6.1-11.9-10.3-20.2-10.9
			c-15.5-1.2-29.1,10.5-30.3,26l-4,52.9L195.9,145.5c-9.5-12.4-27.2-14.6-39.6-5.1c-12.4,9.5-14.6,27.2-5.1,39.6l104.5,135.4
			l-52.1-9.5c-15.3-2.8-30,7.4-32.8,22.7c-2.8,15.4,7.4,30,22.7,32.9L318,384.2C325.8,385.6,333.9,383.6,340.3,378.7z"/>
	</g>
</g>
</svg>
