<?xml version="1.0" encoding="utf-8"?>
<!-- Generator: Adobe Illustrator 24.0.0, SVG Export Plug-In . SVG Version: 6.00 Build 0)  -->
<svg version="1.1" id="Capa_1" xmlns="http://www.w3.org/2000/svg" xmlns:xlink="http://www.w3.org/1999/xlink" x="0px" y="0px"
	 viewBox="0 0 367.9 367.9" style="enable-background:new 0 0 367.9 367.9;" xml:space="preserve">
<style type="text/css">
	.st0{fill:#FFFFFF;}
</style>
<g>
	<g>
		<path class="st0" d="M97.3,288.6l201.9,35.1c4.8,0.8,9.6-3.4,9.4-8.3l-10.1-204.7c-0.2-3.1-2-5.8-4.9-7c-2.8-1.2-6.1-0.6-8.4,1.4
			l-53.9,47.7L114.7,21c-5.8-6.6-16-7.2-22.6-1.4l-59.9,53c-6.6,5.8-7.2,16-1.4,22.6l116.6,131.9l-53.9,47.7c-2.3,2-3.2,5.2-2.4,8.2
			C91.8,285.9,94.3,288.1,97.3,288.6z M163.9,233.8c3.3-2.9,3.6-8,0.7-11.3L42.7,84.6l59.9-53l121.9,137.9c2.9,3.3,8,3.6,11.3,0.7
			l47.5-42l8.8,178l-175.6-30.5L163.9,233.8z"/>
	</g>
</g>
</svg>
