<?xml version="1.0" encoding="utf-8"?>
<!-- Generator: Adobe Illustrator 24.0.0, SVG Export Plug-In . SVG Version: 6.00 Build 0)  -->
<svg version="1.1" id="Capa_1" xmlns="http://www.w3.org/2000/svg" xmlns:xlink="http://www.w3.org/1999/xlink" x="0px" y="0px"
	 viewBox="0 0 367.9 367.9" style="enable-background:new 0 0 367.9 367.9;" xml:space="preserve">
<style type="text/css">
	.st0{fill:#FFFFFF;}
</style>
<g>
	<g>
		<path class="st0" d="M162.7,49.7L2.8,177.9c-3.8,3-3.8,9.5,0,12.5L163,318.2c2.4,1.9,5.7,2.3,8.5,1c2.8-1.3,4.5-4.2,4.5-7.2
			l-0.1-72l176-0.2c8.8,0,16-7.2,16-16l-0.1-80c0-8.8-7.2-16-16-16l-176,0.2l-0.1-72c0-3.1-1.8-5.9-4.5-7.2
			C168.4,47.4,165.1,47.8,162.7,49.7z M159.8,135.9c0,4.4,3.6,8,8,8l184-0.2l0.1,80l-184,0.2c-4.4,0-8,3.6-8,8l0.1,63.4L20.7,184.1
			L159.7,72.6L159.8,135.9z"/>
	</g>
</g>
</svg>
